<svg xmlns="http://www.w3.org/2000/svg" viewBox="0 0 187.3 29.11"><path fill="#FFF" d="M6.1 14.04V5.86h4.75a13 13 0 0 1 2.02.15 4.76 4.76 0 0 1 1.71.6 3.25 3.25 0 0 1 1.19 1.24 4.3 4.3 0 0 1 .44 2.1 4.3 4.3 0 0 1-.44 2.1 3.25 3.25 0 0 1-1.19 1.24 4.76 4.76 0 0 1-1.71.6 13 13 0 0 1-2.02.15zM0 1.2v27.3h6.1V18.7h6.42a11.74 11.74 0 0 0 4.44-.74 8.3 8.3 0 0 0 2.97-1.97 7.51 7.51 0 0 0 1.68-2.8 10.27 10.27 0 0 0 0-6.49 7.54 7.54 0 0 0-1.68-2.8 8.3 8.3 0 0 0-2.97-1.96 11.74 11.74 0 0 0-4.44-.75zm63.3 22.26V6.25h4.36a10.01 10.01 0 0 1 3.8.62 5.94 5.94 0 0 1 2.47 1.82 7.38 7.38 0 0 1 1.34 2.85 15.66 15.66 0 0 1 .4 3.73 11.02 11.02 0 0 1-.58 3.83 7 7 0 0 1-1.55 2.54 5.66 5.66 0 0 1-2.22 1.4 7.96 7.96 0 0 1-2.57.42zM57.2 1.2v27.3h11.98a13.49 13.49 0 0 0 5.54-1.05 11.01 11.01 0 0 0 3.93-2.88A12.05 12.05 0 0 0 81 20.2a18.62 18.62 0 0 0 .78-5.5 16.76 16.76 0 0 0-.95-5.93 11.62 11.62 0 0 0-2.65-4.21 10.87 10.87 0 0 0-4-2.52 14.52 14.52 0 0 0-5-.85zm47.33 9.18h5.92a10.87 10.87 0 0 0-1.32-4.2 10.28 10.28 0 0 0-2.67-3.08 11.8 11.8 0 0 0-3.66-1.9 15.13 15.13 0 0 0-10.07.46 12.26 12.26 0 0 0-4.3 3.06 13.59 13.59 0 0 0-2.68 4.57 16.8 16.8 0 0 0-.94 5.68 16.24 16.24 0 0 0 .94 5.57 13.24 13.24 0 0 0 2.68 4.49 12.3 12.3 0 0 0 4.3 3 14.45 14.45 0 0 0 5.74 1.09 13.9 13.9 0 0 0 4.7-.77 10.95 10.95 0 0 0 3.74-2.21 11.09 11.09 0 0 0 2.57-3.52 13.7 13.7 0 0 0 1.2-4.63h-5.91a7.72 7.72 0 0 1-1.93 4.44 5.7 5.7 0 0 1-4.37 1.68 7.23 7.23 0 0 1-3.5-.78 6.64 6.64 0 0 1-2.34-2.09 8.97 8.97 0 0 1-1.3-2.92 13.68 13.68 0 0 1-.4-3.35 14.7 14.7 0 0 1 .4-3.48 9.14 9.14 0 0 1 1.3-3 6.57 6.57 0 0 1 2.34-2.1 7.23 7.23 0 0 1 3.5-.78 6.45 6.45 0 0 1 2.16.36 6.3 6.3 0 0 1 1.84 1.01 6.07 6.07 0 0 1 1.36 1.51 4.85 4.85 0 0 1 .7 1.9zm17.31 7.58l3.62-10.02h.08l3.5 10.02zm.58-16.75l-10.5 27.3h6.15l2.18-6.08h10.38l2.1 6.07h6.34L128.7 1.2zm23.23 18.24h-5.91a8.9 8.9 0 0 0 .93 4.35 8.64 8.64 0 0 0 2.62 3.03 11.29 11.29 0 0 0 3.82 1.74 17.83 17.83 0 0 0 4.45.55 17.37 17.37 0 0 0 5-.65 10.63 10.63 0 0 0 3.62-1.82 7.58 7.58 0 0 0 2.2-2.77 8.22 8.22 0 0 0 .73-3.48 6.6 6.6 0 0 0-1-3.76 8.21 8.21 0 0 0-2.35-2.36 10.42 10.42 0 0 0-2.74-1.28q-1.38-.4-2.16-.55l-4.22-1.07a15.84 15.84 0 0 1-2.53-.84 2.77 2.77 0 0 1-1.22-.92 2.42 2.42 0 0 1-.31-1.3 2.54 2.54 0 0 1 .39-1.45 3.35 3.35 0 0 1 .99-.96 4 4 0 0 1 1.34-.54 7.27 7.27 0 0 1 1.48-.15 10.59 10.59 0 0 1 2.08.2 5.07 5.07 0 0 1 1.7.64 3.4 3.4 0 0 1 1.18 1.26 4.76 4.76 0 0 1 .52 2.03h5.91a8.27 8.27 0 0 0-.91-4.03 7.88 7.88 0 0 0-2.47-2.74 10.52 10.52 0 0 0-3.56-1.55 17.95 17.95 0 0 0-4.18-.47 14.46 14.46 0 0 0-3.73.5 10.5 10.5 0 0 0-3.35 1.53 8.2 8.2 0 0 0-2.4 2.58 7.05 7.05 0 0 0-.9 3.65 6.58 6.58 0 0 0 .72 3.2 6.78 6.78 0 0 0 1.88 2.2 10.48 10.48 0 0 0 2.65 1.43 26.92 26.92 0 0 0 3.03.93q1.52.42 3 .77a19.07 19.07 0 0 1 2.64.8 5.72 5.72 0 0 1 1.89 1.15 2.37 2.37 0 0 1 .72 1.8 2.6 2.6 0 0 1-.55 1.7 3.8 3.8 0 0 1-1.36 1.05 6.17 6.17 0 0 1-1.75.51 12.37 12.37 0 0 1-1.75.14 9.43 9.43 0 0 1-2.33-.29 5.86 5.86 0 0 1-1.97-.88 4.37 4.37 0 0 1-1.34-1.55 4.94 4.94 0 0 1-.5-2.33zm27.22-13.2V28.5h6.1V6.24h8.33V1.2h-22.75v5.05zM37.95 0A13.45 13.45 0 1 0 51.4 13.45 13.46 13.46 0 0 0 37.95 0zm-5.81 15.79h2.36a3.5 3.5 0 0 0 6.91 0h2.36a5.85 5.85 0 0 1-11.63 0zm3.47-.59V8.19a2.34 2.34 0 1 1 4.68 0v7.01a2.34 2.34 0 1 1-4.68 0zm2.93 10.5v-3.5a7.02 7.02 0 0 0 6.43-7v-2.92a.58.58 0 0 0-1.17 0v2.34h-2.34V8.19a3.5 3.5 0 1 0-7.01 0v6.43H32.1v-2.34a.58.58 0 1 0-1.17 0v2.92a7.02 7.02 0 0 0 6.44 6.98v3.52a12.28 12.28 0 1 1 1.17 0z"/></svg>